<svg viewBox="0 0 640 400" data-background-color="#ffffff" preserveAspectRatio="xMidYMid meet" height="400" width="640" xmlns="http://www.w3.org/2000/svg" xmlns:xlink="http://www.w3.org/1999/xlink">
    <rect width="640" height="400" x="0" y="0" opacity="1" fill="#ffffff" data-fill-palette-color="background"
        id="background"></rect>
    <g id="tight-bounds" transform="matrix(1,0,0,1,190.34051242346098,76.4)">
        <svg viewBox="0 0 259.31897515307804 247.2" height="247.2" width="259.31897515307804">
            <g><svg viewBox="0 0 395.52 377.0358260219257" height="247.2" width="259.31897515307804">
                    <g transform="matrix(1,0,0,1,0,257.13171917188686)"><svg viewBox="0 0 395.52 119.9041068500388"
                            height="119.9041068500388" width="395.52">
                            <g><svg viewBox="0 0 395.52 119.9041068500388" height="119.9041068500388" width="395.52">
                                    <g><svg viewBox="0 0 395.52 64.67054578670928" height="64.67054578670928"
                                            width="395.52">
                                            <g transform="matrix(1,0,0,1,0,0)"><svg width="395.52"
                                                    viewBox="2.9000000953674316 -35.150001525878906 218.94000244140625 35.80000305175781"
                                                    height="64.67054578670928" data-palette-color="#000000">
                                                    <g class="undefined-text-0" data-fill-palette-color="primary"
                                                        id="text-0">
                                                        <path
                                                            d="M16.65-35.1L16.65-35.1Q18.9-35.1 20.5-35 22.1-34.9 23.45-34.68 24.8-34.45 26.25-34.05L26.25-34.05 25.75-30.3Q24.25-30.45 22.95-30.53 21.65-30.6 20.18-30.65 18.7-30.7 16.65-30.7L16.65-30.7Q13.45-30.7 11.6-29.45 9.75-28.2 8.97-25.28 8.2-22.35 8.2-17.25L8.2-17.25Q8.2-12.15 8.97-9.22 9.75-6.3 11.6-5.05 13.45-3.8 16.65-3.8L16.65-3.8Q19.9-3.8 22.13-3.93 24.35-4.05 26.45-4.35L26.45-4.35 26.95-0.6Q24.75 0.05 22.43 0.33 20.1 0.6 16.65 0.6L16.65 0.6Q11.65 0.6 8.63-1.13 5.6-2.85 4.25-6.75 2.9-10.65 2.9-17.25L2.9-17.25Q2.9-23.85 4.25-27.75 5.6-31.65 8.63-33.38 11.65-35.1 16.65-35.1ZM32.85-34.5L37.85-34.5 37.85 0 32.85 0 32.85-34.5ZM37.45-20.5L53.6-20.5 53.6-16.35 37.45-16.35 37.45-20.5ZM53.05-34.5L58.1-34.5 58.1 0 53.05 0 53.05-34.5ZM78.59-34.95L78.59-34.95Q82.7-34.95 85.22-34.08 87.75-33.2 88.9-31.03 90.05-28.85 90.05-24.95L90.05-24.95Q90.05-22.2 89.4-20.35 88.75-18.5 87.37-17.45 86-16.4 83.65-16.1L83.65-16.1 83.65-15.85Q84.5-15.65 85.34-15.05 86.2-14.45 86.95-13.43 87.7-12.4 88.05-10.85L88.05-10.85 91.3 0 86 0 83-10.75Q82.4-12.65 81.34-13.45 80.3-14.25 78.59-14.25L78.59-14.25Q75.45-14.25 73.2-14.28 70.95-14.3 69.42-14.35 67.9-14.4 66.95-14.4L66.95-14.4 67.09-18.4 78.5-18.4Q80.95-18.45 82.34-18.98 83.75-19.5 84.37-20.85 85-22.2 85-24.65L85-24.65Q85-27.1 84.37-28.43 83.75-29.75 82.34-30.28 80.95-30.8 78.5-30.8L78.5-30.8Q74.3-30.8 71.25-30.75 68.2-30.7 67.15-30.7L67.15-30.7 66.45-34.5Q68.34-34.7 70.05-34.8 71.75-34.9 73.77-34.93 75.8-34.95 78.59-34.95ZM66.45-34.5L71.4-34.5 71.4 0 66.45 0 66.45-34.5ZM110.19-35.15L110.19-35.15Q113.99-35.15 116.67-34.25 119.34-33.35 120.94-31.3 122.54-29.25 123.27-25.8 123.99-22.35 123.99-17.25L123.99-17.25Q123.99-12.2 123.27-8.72 122.54-5.25 120.94-3.2 119.34-1.15 116.67-0.25 113.99 0.65 110.19 0.65L110.19 0.65Q106.39 0.65 103.72-0.25 101.04-1.15 99.42-3.2 97.79-5.25 97.04-8.72 96.29-12.2 96.29-17.25L96.29-17.25Q96.29-22.35 97.04-25.8 97.79-29.25 99.42-31.3 101.04-33.35 103.72-34.25 106.39-35.15 110.19-35.15ZM110.19-30.8L110.19-30.8Q106.94-30.8 105.04-29.55 103.14-28.3 102.37-25.38 101.59-22.45 101.59-17.25L101.59-17.25Q101.59-12.1 102.37-9.15 103.14-6.2 105.04-4.95 106.94-3.7 110.19-3.7L110.19-3.7Q113.44-3.7 115.32-4.95 117.19-6.2 117.99-9.15 118.79-12.1 118.79-17.25L118.79-17.25Q118.79-22.45 117.99-25.38 117.19-28.3 115.32-29.55 113.44-30.8 110.19-30.8ZM153.34-34.5L158.19-34.5 158.19-1.95Q158.19 0 156.34 0L156.34 0 152.04 0Q151.19 0 150.72-0.4 150.24-0.8 149.89-1.55L149.89-1.55 138.59-24.85Q138.14-25.85 137.54-27.13 136.94-28.4 136.64-29.5L136.64-29.5 135.89-29.5Q135.99-28.35 136.04-27.18 136.09-26 136.09-24.8L136.09-24.8 136.09 0 131.19 0 131.19-32.55Q131.19-34.5 133.09-34.5L133.09-34.5 137.24-34.5Q138.09-34.5 138.59-34.1 139.09-33.7 139.44-32.95L139.44-32.95 150.34-10.25Q150.89-9.2 151.52-7.85 152.14-6.5 152.74-5.2L152.74-5.2 153.54-5.2Q153.44-6.55 153.39-7.88 153.34-9.2 153.34-10.5L153.34-10.5 153.34-34.5ZM179.19-35.15L179.19-35.15Q182.99-35.15 185.66-34.25 188.34-33.35 189.94-31.3 191.54-29.25 192.26-25.8 192.99-22.35 192.99-17.25L192.99-17.25Q192.99-12.2 192.26-8.72 191.54-5.25 189.94-3.2 188.34-1.15 185.66-0.25 182.99 0.65 179.19 0.65L179.19 0.65Q175.39 0.65 172.71-0.25 170.04-1.15 168.41-3.2 166.79-5.25 166.04-8.72 165.29-12.2 165.29-17.25L165.29-17.25Q165.29-22.35 166.04-25.8 166.79-29.25 168.41-31.3 170.04-33.35 172.71-34.25 175.39-35.15 179.19-35.15ZM179.19-30.8L179.19-30.8Q175.94-30.8 174.04-29.55 172.14-28.3 171.36-25.38 170.59-22.45 170.59-17.25L170.59-17.25Q170.59-12.1 171.36-9.15 172.14-6.2 174.04-4.95 175.94-3.7 179.19-3.7L179.19-3.7Q182.44-3.7 184.31-4.95 186.19-6.2 186.99-9.15 187.79-12.1 187.79-17.25L187.79-17.25Q187.79-22.45 186.99-25.38 186.19-28.3 184.31-29.55 182.44-30.8 179.19-30.8ZM210.09-35.1L210.09-35.1Q212.59-35.05 215.26-34.85 217.94-34.65 220.59-34.05L220.59-34.05 220.24-30.5Q218.09-30.6 215.41-30.65 212.74-30.7 210.24-30.7L210.24-30.7Q208.49-30.7 207.24-30.6 205.99-30.5 205.19-30.05 204.39-29.6 204.01-28.6 203.64-27.6 203.64-25.85L203.64-25.85Q203.64-23.2 204.64-22.13 205.64-21.05 207.89-20.5L207.89-20.5 214.84-18.65Q218.84-17.65 220.34-15.28 221.84-12.9 221.84-8.9L221.84-8.9Q221.84-5.9 221.16-4.05 220.49-2.2 219.06-1.2 217.64-0.2 215.39 0.2 213.14 0.6 210.04 0.6L210.04 0.6Q208.34 0.6 205.54 0.45 202.74 0.3 199.09-0.4L199.09-0.4 199.44-4.05Q202.39-3.95 204.26-3.88 206.14-3.8 207.49-3.8 208.84-3.8 210.19-3.8L210.19-3.8Q212.69-3.8 214.14-4.17 215.59-4.55 216.19-5.68 216.79-6.8 216.79-8.95L216.79-8.95Q216.79-10.8 216.36-11.85 215.94-12.9 215.01-13.43 214.09-13.95 212.64-14.3L212.64-14.3 205.49-16.25Q201.74-17.3 200.19-19.65 198.64-22 198.64-25.9L198.64-25.9Q198.64-28.9 199.31-30.75 199.99-32.6 201.39-33.52 202.79-34.45 204.94-34.77 207.09-35.1 210.09-35.1Z"
                                                            fill="#000000" data-fill-palette-color="primary"></path>
                                                    </g>
                                                </svg></g>
                                        </svg></g>
                                    <g transform="matrix(1,0,0,1,87.41067357063497,79.93770955385247)"><svg
                                            viewBox="0 0 220.69865285873004 39.96639729618634"
                                            height="39.96639729618634" width="220.69865285873004">
                                            <g transform="matrix(1,0,0,1,0,0)"><svg width="220.69865285873004"
                                                    viewBox="1.75 -35 262.2799987792969 47.5" height="39.96639729618634"
                                                    data-palette-color="#000000">
                                                    <path
                                                        d="M1.75 0L11.15 0 11.15-1.35 7-1.35 7-15.7 11.75-20.2Q15.45-15.45 19.15-10.75 22.85-6.05 26.5-1.35L26.5-1.35 23.35-1.35 23.35 0 32.55 0 32.55-1.35 28.3-1.35Q24.4-6.35 20.53-11.25 16.65-16.15 12.75-21.1L12.75-21.1 25.85-33.65 30.2-33.65 30.2-35 21.05-35 21.05-33.65 23.95-33.65 7.85-18.2 6.95-17.2Q6.95-17.6 6.98-17.93 7-18.25 7-18.65L7-18.65 7-33.65 10.95-33.65 10.95-35 1.75-35 1.75-33.65 5.6-33.65 5.6-1.35 1.75-1.35 1.75 0ZM45.8-17.8L45.8-17.8Q48-17.8 49.8-16.55 51.6-15.3 52.55-13.3L52.55-13.3Q48.85-11.8 45.15-10.33 41.45-8.85 37.75-7.35L37.75-7.35Q37.2-9.3 37.62-11.15 38.05-13 39.15-14.45L39.15-14.45Q40.3-15.95 42.02-16.88 43.75-17.8 45.8-17.8ZM52.4-2.3L52.4-2.3 51.5-3.35Q50.4-2.25 48.95-1.65 47.5-1.05 45.8-1.05L45.8-1.05Q43.2-1.05 41.15-2.43 39.1-3.8 38.15-6.05L38.15-6.05Q42.25-7.7 46.25-9.3 50.25-10.9 54.35-12.55L54.35-12.55Q53.85-14 53.02-15.18 52.2-16.35 51.2-17.2L51.2-17.2Q50.1-18.15 48.7-18.65 47.3-19.15 45.8-19.15L45.8-19.15Q43.75-19.15 41.97-18.38 40.2-17.6 38.9-16.3L38.9-16.3Q37.55-15 36.8-13.2 36.05-11.4 36.05-9.4L36.05-9.4Q36.05-7.35 36.8-5.6 37.55-3.85 38.9-2.5L38.9-2.5Q40.2-1.2 41.97-0.43 43.75 0.35 45.8 0.35L45.8 0.35Q47.75 0.35 49.42-0.35 51.1-1.05 52.4-2.3ZM67.7-17.8L67.7-17.8Q69.9-17.8 71.7-16.55 73.5-15.3 74.45-13.3L74.45-13.3Q70.75-11.8 67.05-10.33 63.35-8.85 59.65-7.35L59.65-7.35Q59.1-9.3 59.52-11.15 59.95-13 61.05-14.45L61.05-14.45Q62.2-15.95 63.92-16.88 65.65-17.8 67.7-17.8ZM74.3-2.3L74.3-2.3 73.4-3.35Q72.3-2.25 70.85-1.65 69.4-1.05 67.7-1.05L67.7-1.05Q65.1-1.05 63.05-2.43 61-3.8 60.05-6.05L60.05-6.05Q64.15-7.7 68.15-9.3 72.15-10.9 76.25-12.55L76.25-12.55Q75.75-14 74.92-15.18 74.1-16.35 73.1-17.2L73.1-17.2Q72-18.15 70.6-18.65 69.2-19.15 67.7-19.15L67.7-19.15Q65.65-19.15 63.87-18.38 62.1-17.6 60.8-16.3L60.8-16.3Q59.45-15 58.7-13.2 57.95-11.4 57.95-9.4L57.95-9.4Q57.95-7.35 58.7-5.6 59.45-3.85 60.8-2.5L60.8-2.5Q62.1-1.2 63.87-0.43 65.65 0.35 67.7 0.35L67.7 0.35Q69.65 0.35 71.32-0.35 73-1.05 74.3-2.3ZM80.24 11.15L80.24 12.5 89.39 12.5 89.39 11.15 84.99 11.15 84.99-2.6Q84.99-3.2 84.97-3.75 84.94-4.3 84.89-4.9L84.89-4.9Q85.34-3.8 86.12-2.85 86.89-1.9 87.99-1.2L87.99-1.2Q89.09-0.45 90.44-0.03 91.79 0.4 93.34 0.4L93.34 0.4Q95.34 0.4 97.14-0.38 98.94-1.15 100.29-2.45L100.29-2.45Q101.59-3.75 102.34-5.53 103.09-7.3 103.09-9.35L103.09-9.35Q103.09-11.35 102.34-13.13 101.59-14.9 100.29-16.25L100.29-16.25Q98.94-17.55 97.14-18.32 95.34-19.1 93.34-19.1L93.34-19.1Q90.29-19.1 88.02-17.5 85.74-15.9 84.79-13.55L84.79-13.55Q84.79-14.85 84.72-16.15 84.64-17.45 84.64-18.75L84.64-18.75 79.84-18.75 79.84-17.4 83.54-17.4 83.54 11.15 80.24 11.15ZM93.34-17.7L93.34-17.7Q95.04-17.7 96.57-17.07 98.09-16.45 99.24-15.35L99.24-15.35Q100.34-14.2 101.02-12.65 101.69-11.1 101.69-9.35L101.69-9.35Q101.69-7.55 101.04-6.03 100.39-4.5 99.24-3.35L99.24-3.35Q98.09-2.25 96.57-1.6 95.04-0.95 93.34-0.95L93.34-0.95Q91.59-0.95 90.09-1.6 88.59-2.25 87.44-3.4L87.44-3.4Q86.24-4.55 85.59-6.08 84.94-7.6 84.94-9.35L84.94-9.35Q84.94-11.1 85.57-12.63 86.19-14.15 87.34-15.3L87.34-15.3Q88.49-16.4 90.02-17.05 91.54-17.7 93.34-17.7ZM121.59 0L130.99 0 130.99-1.35 126.84-1.35 126.84-33.65 130.99-33.65 130.99-35 121.59-35 121.59-33.65 125.44-33.65 125.44-1.35 121.59-1.35 121.59 0ZM134.49 0L143.69 0 143.69-1.35 139.79-1.35 139.79-10.6Q139.79-12.15 140.44-13.48 141.09-14.8 142.24-15.75L142.24-15.75Q143.34-16.65 144.79-17.2 146.24-17.75 147.89-17.75L147.89-17.75Q149.99-17.65 151.16-16.38 152.34-15.1 152.44-13.4L152.44-13.4 152.44-1.35 148.49-1.35 148.49 0 157.69 0 157.69-1.35 153.84-1.35 153.84-13.5Q153.74-16 152.16-17.55 150.59-19.1 147.89-19.1L147.89-19.1Q145.09-19.1 142.86-17.68 140.64-16.25 139.64-13.85L139.64-13.85Q139.64-14.65 139.61-15.23 139.59-15.8 139.54-16.55L139.54-16.55 139.49-18.75 134.74-18.75 134.74-17.4 138.39-17.4 138.39-1.35 134.49-1.35 134.49 0ZM170.28 0L179.68 0 179.68-1.35 175.68-1.35 175.68-33.65 187.48-33.65 187.48-27.3 188.83-27.3 188.83-35 161.18-35 161.18-27.3 162.53-27.3 162.53-33.65 174.28-33.65 174.28-1.35 170.28-1.35 170.28 0ZM192.33 0L201.53 0 201.53-1.35 197.73-1.35 197.73-18.75 192.33-18.75 192.33-17.4 196.33-17.4 196.33-1.35 192.33-1.35 192.33 0ZM198.33-25.2L198.33-25.2Q198.33-25.75 197.93-26.15 197.53-26.55 197.03-26.55L197.03-26.55Q196.48-26.55 196.08-26.15 195.68-25.75 195.68-25.2L195.68-25.2Q195.68-24.65 196.08-24.28 196.48-23.9 197.03-23.9L197.03-23.9Q197.53-23.9 197.93-24.28 198.33-24.65 198.33-25.2ZM205.03 0L214.23 0 214.23-1.35 210.33-1.35 210.33-10.6Q210.33-12.15 210.98-13.48 211.63-14.8 212.78-15.75L212.78-15.75Q213.88-16.65 215.33-17.2 216.78-17.75 218.43-17.75L218.43-17.75Q220.53-17.65 221.7-16.38 222.88-15.1 222.98-13.4L222.98-13.4 222.98-1.35 219.03-1.35 219.03 0 228.23 0 228.23-1.35 224.38-1.35 224.38-10.85Q224.38-12.35 225.08-13.6 225.78-14.85 226.88-15.8L226.88-15.8Q227.98-16.7 229.4-17.23 230.83-17.75 232.43-17.75L232.43-17.75Q234.58-17.65 235.73-16.38 236.88-15.1 236.98-13.4L236.98-13.4 236.98-1.35 233.03-1.35 233.03 0 242.23 0 242.23-1.35 238.38-1.35 238.38-13.5Q238.28-16 236.7-17.55 235.13-19.1 232.43-19.1L232.43-19.1Q229.68-19.1 227.53-17.75 225.38-16.4 224.33-14.1L224.33-14.1Q224.08-16.35 222.5-17.73 220.93-19.1 218.43-19.1L218.43-19.1Q215.58-19.1 213.4-17.68 211.23-16.25 210.18-13.85L210.18-13.85Q210.18-14.65 210.15-15.23 210.13-15.8 210.08-16.55L210.08-16.55 210.03-18.75 205.28-18.75 205.28-17.4 208.93-17.4 208.93-1.35 205.03-1.35 205.03 0ZM255.48-17.8L255.48-17.8Q257.68-17.8 259.48-16.55 261.28-15.3 262.23-13.3L262.23-13.3Q258.53-11.8 254.83-10.33 251.13-8.85 247.43-7.35L247.43-7.35Q246.88-9.3 247.3-11.15 247.73-13 248.83-14.45L248.83-14.45Q249.98-15.95 251.7-16.88 253.43-17.8 255.48-17.8ZM262.08-2.3L262.08-2.3 261.18-3.35Q260.08-2.25 258.63-1.65 257.18-1.05 255.48-1.05L255.48-1.05Q252.88-1.05 250.83-2.43 248.78-3.8 247.83-6.05L247.83-6.05Q251.93-7.7 255.93-9.3 259.93-10.9 264.03-12.55L264.03-12.55Q263.53-14 262.7-15.18 261.88-16.35 260.88-17.2L260.88-17.2Q259.78-18.15 258.38-18.65 256.98-19.15 255.48-19.15L255.48-19.15Q253.43-19.15 251.65-18.38 249.88-17.6 248.58-16.3L248.58-16.3Q247.23-15 246.48-13.2 245.73-11.4 245.73-9.4L245.73-9.4Q245.73-7.35 246.48-5.6 247.23-3.85 248.58-2.5L248.58-2.5Q249.88-1.2 251.65-0.43 253.43 0.35 255.48 0.35L255.48 0.35Q257.43 0.35 259.1-0.35 260.78-1.05 262.08-2.3Z"
                                                        opacity="1" transform="matrix(1,0,0,1,0,0)" fill="#000000"
                                                        class="undefined-text-1" data-fill-palette-color="secondary"
                                                        id="text-1"></path>
                                                </svg></g>
                                        </svg></g>
                                </svg></g>
                        </svg></g>
                    <g transform="matrix(1,0,0,1,84.46130418119974,0)"><svg
                            viewBox="0 0 226.5973916376005 226.5973916376005" height="226.5973916376005"
                            width="226.5973916376005">
                            <g><svg></svg></g>
                            <g id="icon-0"><svg viewBox="0 0 226.5973916376005 226.5973916376005"
                                    height="226.5973916376005" width="226.5973916376005">
                                    <g>
                                        <path
                                            d="M0 113.299c0-62.573 50.726-113.299 113.299-113.299 62.573 0 113.299 50.726 113.298 113.299 0 62.573-50.726 113.299-113.298 113.298-62.573 0-113.299-50.726-113.299-113.298zM113.299 220.765c59.352 0 107.467-48.114 107.466-107.466 0-59.352-48.114-107.467-107.466-107.467-59.352 0-107.467 48.114-107.467 107.467 0 59.352 48.114 107.467 107.467 107.466z"
                                            data-fill-palette-color="accent" fill="#0074d9" stroke="transparent"></path>
                                    </g>
                                    <g transform="matrix(1,0,0,1,48.40666386919392,54.771162774138006)"><svg
                                            viewBox="0 0 129.78406389921267 117.0550660893245"
                                            height="117.0550660893245" width="129.78406389921267">
                                            <g><svg xmlns="http://www.w3.org/2000/svg"
                                                    viewBox="5.070576190948486 8.907999992370605 90.24842071533203 81.39701080322266"
                                                    xml:space="preserve" x="0" y="0" height="117.0550660893245"
                                                    width="129.78406389921267" class="icon-x-0"
                                                    data-fill-palette-color="accent" id="x-0">
                                                    <path
                                                        d="M54.621 8.908a3.577 3.577 0 0 0 0 7.156c18.493 0 33.54 15.047 33.54 33.543 0 18.495-15.047 33.542-33.54 33.542-16.971 0-31.03-12.676-33.23-29.056l2.504 2.505a3.564 3.564 0 0 0 2.53 1.047 3.58 3.58 0 0 0 2.53-6.108l-8.922-8.922a3.578 3.578 0 0 0-5.06 0l-8.922 8.922a3.58 3.58 0 0 0 5.061 5.061l3.012-3.012c2.007 20.579 19.403 36.719 40.498 36.719 22.439 0 40.697-18.258 40.697-40.698-0.001-22.441-18.258-40.699-40.698-40.699z"
                                                        fill="#0074d9" data-fill-palette-color="accent"></path>
                                                    <path
                                                        d="M41.141 69.414a3.793 3.793 0 0 1-2.683-6.474l11.856-11.86V27.108a3.79 3.79 0 1 1 7.581 0v25.541c0 1.006-0.398 1.97-1.109 2.682L43.823 68.303a3.782 3.782 0 0 1-2.682 1.111zM81.644 51.94h-3.926a2.5 2.5 0 1 1 0-5h3.926a2.5 2.5 0 1 1 0 5zM72.316 71.539c-0.64 0-1.279-0.244-1.768-0.732l-2.776-2.776a2.499 2.499 0 1 1 3.535-3.535l2.776 2.776a2.498 2.498 0 0 1-1.767 4.267zM52.719 79.657a2.5 2.5 0 0 1-2.5-2.5V73.23a2.5 2.5 0 1 1 5 0v3.927a2.5 2.5 0 0 1-2.5 2.5zM69.541 35.117a2.5 2.5 0 0 1-1.768-4.268l2.775-2.776a2.499 2.499 0 1 1 3.535 3.536l-2.775 2.776a2.489 2.489 0 0 1-1.767 0.732z"
                                                        fill="#0074d9" data-fill-palette-color="accent"></path>
                                                </svg></g>
                                        </svg></g>
                                </svg></g>
                        </svg></g>
                    <g></g>
                </svg></g>
        </svg>
        <rect width="259.31897515307804" height="247.2" fill="none" stroke="none" visibility="hidden"></rect>
    </g>
    <defs></defs>
</svg>
